<svg xmlns="http://www.w3.org/2000/svg" version="1.1" xmlns:xlink="http://www.w3.org/1999/xlink" width="512" height="512" x="0" y="0" viewBox="0 0 100 100" style="enable-background:new 0 0 512 512" xml:space="preserve"><g><path d="M39 25h6v17a3 3 0 0 1-3 3H25v-6h9.758L19.879 24.121l4.242-4.242L39 34.758zm19 20h17v-6h-9.758l14.879-14.879-4.242-4.242L61 34.758V25h-6v17a3 3 0 0 0 3 3zM42 55H25v6h9.758L19.879 75.879l4.242 4.242L39 65.242V75h6V58a3 3 0 0 0-3-3zm33 6v-6H58a3 3 0 0 0-3 3v17h6v-9.758l14.879 14.879 4.242-4.242L65.242 61z" fill="#000000" opacity="1" data-original="#000000"></path></g></svg>